<svg width="233" height="102" viewBox="0 0 233 102" fill="none" xmlns="http://www.w3.org/2000/svg">
<path d="M107.5 19.3438C107.656 19.6042 107.734 20.2031 107.734 21.1406C107.786 22.0781 107.76 23.0938 107.656 24.1875C107.552 25.2812 107.396 26.349 107.188 27.3906C107.031 28.3802 106.849 29.0312 106.641 29.3438C106.484 29.6042 105.521 29.7083 103.75 29.6562C102.031 29.5521 99.5573 29.2917 96.3281 28.875C96.3281 30.9062 96.3021 33.5104 96.25 36.6875C96.1979 39.8646 96.0938 43.276 95.9375 46.9219C95.8333 50.5156 95.7031 54.1354 95.5469 57.7812C95.4427 61.4271 95.3125 64.7344 95.1562 67.7031C95 70.6719 94.8438 73.0938 94.6875 74.9688C94.5312 76.8438 94.401 77.8333 94.2969 77.9375C94.0885 78.0938 93.724 78.0156 93.2031 77.7031C92.7344 77.4427 92.2396 77.0521 91.7188 76.5312C91.1979 76.0104 90.7031 75.4896 90.2344 74.9688C89.8177 74.3958 89.5312 73.901 89.375 73.4844C89.3229 73.276 89.2188 72.2604 89.0625 70.4375C88.9583 68.6146 88.8281 66.3229 88.6719 63.5625C88.5156 60.8021 88.3333 57.7292 88.125 54.3438C87.9167 50.9583 87.7083 47.599 87.5 44.2656C87.2917 40.9323 87.0573 37.8073 86.7969 34.8906C86.5885 31.974 86.4062 29.5521 86.25 27.625C82.7083 27.2604 80.1562 26.8958 78.5938 26.5312C77.0312 26.1667 76.1458 25.8802 75.9375 25.6719C75.7292 25.4635 75.5208 25.0729 75.3125 24.5C75.0521 23.875 74.8438 23.25 74.6875 22.625C74.5312 22 74.4531 21.4271 74.4531 20.9062C74.401 20.3333 74.4531 19.9688 74.6094 19.8125C74.7135 19.7083 75.599 19.6042 77.2656 19.5C78.8802 19.3958 80.8854 19.2917 83.2812 19.1875C85.6771 19.0833 88.2552 19.0052 91.0156 18.9531C93.8281 18.901 96.4323 18.875 98.8281 18.875C101.224 18.875 103.229 18.9271 104.844 19.0312C106.51 19.0833 107.396 19.1875 107.5 19.3438ZM123.984 34.2656C124.349 34.5781 124.688 35.1771 125 36.0625C125.365 36.9479 125.677 38.0156 125.938 39.2656C126.198 40.5156 126.432 41.8698 126.641 43.3281C126.849 44.7865 127.031 46.2188 127.188 47.625C127.344 49.0312 127.448 50.3594 127.5 51.6094C127.604 52.8073 127.682 53.7969 127.734 54.5781C127.786 55.5156 127.812 56.5052 127.812 57.5469C127.865 58.5365 127.865 59.5 127.812 60.4375C127.812 61.3229 127.76 62.1302 127.656 62.8594C127.604 63.5885 127.5 64.1354 127.344 64.5C127.031 65.2812 126.484 65.8281 125.703 66.1406C124.974 66.401 124.141 66.5833 123.203 66.6875C122.734 66.7396 121.927 66.7656 120.781 66.7656C119.688 66.7135 118.49 66.6615 117.188 66.6094C115.938 66.5052 114.74 66.401 113.594 66.2969C112.448 66.1927 111.589 66.0885 111.016 65.9844C109.87 65.724 109.036 65.3854 108.516 64.9688C108.047 64.5521 107.578 63.9531 107.109 63.1719C106.953 62.8594 106.823 62.0781 106.719 60.8281C106.615 59.526 106.536 57.9896 106.484 56.2188C106.484 54.3958 106.51 52.4427 106.562 50.3594C106.615 48.276 106.693 46.2969 106.797 44.4219C106.953 42.5469 107.109 40.9062 107.266 39.5C107.474 38.0938 107.734 37.1562 108.047 36.6875C108.568 35.9583 109.453 35.2812 110.703 34.6562C112.005 34.0312 113.177 33.5365 114.219 33.1719C114.74 33.0156 115.417 32.9115 116.25 32.8594C117.135 32.7552 118.047 32.7552 118.984 32.8594C119.974 32.9115 120.911 33.0677 121.797 33.3281C122.682 33.5365 123.411 33.849 123.984 34.2656ZM119.609 58.4844C119.714 58.276 119.818 57.651 119.922 56.6094C120.078 55.5156 120.182 54.2135 120.234 52.7031C120.339 51.1927 120.391 49.5781 120.391 47.8594C120.443 46.1406 120.469 44.5521 120.469 43.0938C120.469 41.6354 120.417 40.4115 120.312 39.4219C120.208 38.3802 120.078 37.7812 119.922 37.625C119.661 37.4167 119.271 37.3385 118.75 37.3906C118.281 37.3906 117.786 37.4688 117.266 37.625C116.745 37.7292 116.276 37.8854 115.859 38.0938C115.443 38.25 115.156 38.4062 115 38.5625C114.323 39.1354 113.958 40.0729 113.906 41.375C113.906 41.7396 113.854 42.7812 113.75 44.5C113.698 46.1667 113.672 47.9896 113.672 49.9688C113.672 51.8958 113.698 53.6927 113.75 55.3594C113.854 57.026 114.036 58.0417 114.297 58.4062C114.557 58.7708 114.922 59.0573 115.391 59.2656C115.911 59.4219 116.432 59.5 116.953 59.5C117.526 59.5 118.047 59.4219 118.516 59.2656C119.036 59.0573 119.401 58.7969 119.609 58.4844ZM153.828 25.2812C153.984 26.5312 154.036 29.0312 153.984 32.7812C153.984 34.3958 153.932 36.349 153.828 38.6406C153.776 40.9323 153.672 43.6927 153.516 46.9219C153.359 50.099 153.151 53.7969 152.891 58.0156C152.682 62.1823 152.396 66.9219 152.031 72.2344C151.927 72.7552 151.693 73.3281 151.328 73.9531C151.016 74.5781 150.651 75.151 150.234 75.6719C149.818 76.1927 149.375 76.6354 148.906 77C148.438 77.3125 148.021 77.4167 147.656 77.3125C147.552 77.2604 147.422 76.8438 147.266 76.0625C147.161 75.2812 147.057 74.1875 146.953 72.7812C144.609 73.8229 142.396 74.526 140.312 74.8906C138.229 75.2552 136.536 75.0208 135.234 74.1875C134.714 73.875 134.193 73.3281 133.672 72.5469C133.203 71.7135 132.76 70.75 132.344 69.6562C131.927 68.5625 131.589 67.4167 131.328 66.2188C131.068 64.9688 130.938 63.7969 130.938 62.7031C130.938 61.9219 130.99 60.8802 131.094 59.5781C131.198 58.276 131.328 56.8698 131.484 55.3594C131.641 53.7969 131.823 52.2344 132.031 50.6719C132.24 49.0573 132.448 47.5729 132.656 46.2188C132.865 44.8646 133.047 43.7188 133.203 42.7812C133.359 41.8438 133.49 41.2708 133.594 41.0625C133.698 40.4375 133.88 39.9167 134.141 39.5C134.453 39.0833 134.714 38.7708 134.922 38.5625C135.443 38.1458 136.198 37.8333 137.188 37.625C138.229 37.4167 139.297 37.2865 140.391 37.2344C141.536 37.1823 142.604 37.2083 143.594 37.3125C144.583 37.3646 145.312 37.4688 145.781 37.625H145.938C145.833 31.1667 145.833 26.1927 145.938 22.7031C146.042 19.2135 146.25 17.3385 146.562 17.0781C146.771 16.9219 147.24 17.0521 147.969 17.4688C148.698 17.8854 149.453 18.4844 150.234 19.2656C151.068 20.0469 151.823 20.9844 152.5 22.0781C153.229 23.1198 153.672 24.1875 153.828 25.2812ZM141.953 69.0312C142.682 68.875 143.333 68.6927 143.906 68.4844C144.531 68.224 145.052 67.9896 145.469 67.7812C145.938 67.5729 146.328 67.3125 146.641 67C146.589 65.6458 146.536 64.1354 146.484 62.4688C146.432 60.75 146.38 58.9792 146.328 57.1562C146.276 55.3333 146.224 53.4844 146.172 51.6094C146.12 49.6823 146.068 47.8333 146.016 46.0625C146.016 45.4896 145.911 44.9948 145.703 44.5781C145.547 44.1615 145.339 43.8229 145.078 43.5625C144.922 43.4583 144.609 43.3281 144.141 43.1719C143.672 42.9635 143.125 42.8073 142.5 42.7031C141.927 42.5469 141.354 42.4688 140.781 42.4688C140.26 42.4688 139.896 42.5729 139.688 42.7812C139.583 42.8333 139.479 43.3542 139.375 44.3438C139.323 45.2812 139.245 46.4792 139.141 47.9375C139.089 49.3438 139.01 50.8802 138.906 52.5469C138.854 54.2135 138.802 55.776 138.75 57.2344C138.698 58.6927 138.646 59.9427 138.594 60.9844C138.542 62.026 138.516 62.599 138.516 62.7031C138.516 63.5885 138.62 64.4219 138.828 65.2031C139.089 65.9844 139.401 66.6875 139.766 67.3125C140.13 67.8854 140.521 68.3542 140.938 68.7188C141.354 69.0312 141.693 69.1354 141.953 69.0312ZM175.078 34.2656C175.443 34.5781 175.781 35.1771 176.094 36.0625C176.458 36.9479 176.771 38.0156 177.031 39.2656C177.292 40.5156 177.526 41.8698 177.734 43.3281C177.943 44.7865 178.125 46.2188 178.281 47.625C178.438 49.0312 178.542 50.3594 178.594 51.6094C178.698 52.8073 178.776 53.7969 178.828 54.5781C178.88 55.5156 178.906 56.5052 178.906 57.5469C178.958 58.5365 178.958 59.5 178.906 60.4375C178.906 61.3229 178.854 62.1302 178.75 62.8594C178.698 63.5885 178.594 64.1354 178.438 64.5C178.125 65.2812 177.578 65.8281 176.797 66.1406C176.068 66.401 175.234 66.5833 174.297 66.6875C173.828 66.7396 173.021 66.7656 171.875 66.7656C170.781 66.7135 169.583 66.6615 168.281 66.6094C167.031 66.5052 165.833 66.401 164.688 66.2969C163.542 66.1927 162.682 66.0885 162.109 65.9844C160.964 65.724 160.13 65.3854 159.609 64.9688C159.141 64.5521 158.672 63.9531 158.203 63.1719C158.047 62.8594 157.917 62.0781 157.812 60.8281C157.708 59.526 157.63 57.9896 157.578 56.2188C157.578 54.3958 157.604 52.4427 157.656 50.3594C157.708 48.276 157.786 46.2969 157.891 44.4219C158.047 42.5469 158.203 40.9062 158.359 39.5C158.568 38.0938 158.828 37.1562 159.141 36.6875C159.661 35.9583 160.547 35.2812 161.797 34.6562C163.099 34.0312 164.271 33.5365 165.312 33.1719C165.833 33.0156 166.51 32.9115 167.344 32.8594C168.229 32.7552 169.141 32.7552 170.078 32.8594C171.068 32.9115 172.005 33.0677 172.891 33.3281C173.776 33.5365 174.505 33.849 175.078 34.2656ZM170.703 58.4844C170.807 58.276 170.911 57.651 171.016 56.6094C171.172 55.5156 171.276 54.2135 171.328 52.7031C171.432 51.1927 171.484 49.5781 171.484 47.8594C171.536 46.1406 171.562 44.5521 171.562 43.0938C171.562 41.6354 171.51 40.4115 171.406 39.4219C171.302 38.3802 171.172 37.7812 171.016 37.625C170.755 37.4167 170.365 37.3385 169.844 37.3906C169.375 37.3906 168.88 37.4688 168.359 37.625C167.839 37.7292 167.37 37.8854 166.953 38.0938C166.536 38.25 166.25 38.4062 166.094 38.5625C165.417 39.1354 165.052 40.0729 165 41.375C165 41.7396 164.948 42.7812 164.844 44.5C164.792 46.1667 164.766 47.9896 164.766 49.9688C164.766 51.8958 164.792 53.6927 164.844 55.3594C164.948 57.026 165.13 58.0417 165.391 58.4062C165.651 58.7708 166.016 59.0573 166.484 59.2656C167.005 59.4219 167.526 59.5 168.047 59.5C168.62 59.5 169.141 59.4219 169.609 59.2656C170.13 59.0573 170.495 58.7969 170.703 58.4844ZM188.984 54.4219C189.818 54.1094 190.755 53.7708 191.797 53.4062C192.891 52.9896 193.932 52.625 194.922 52.3125C195.911 51.9479 196.797 51.6354 197.578 51.375C198.359 51.1146 198.932 50.9062 199.297 50.75C199.245 50.1771 199.167 49.526 199.062 48.7969C199.01 48.0156 198.932 47.2865 198.828 46.6094C198.724 45.8802 198.594 45.2552 198.438 44.7344C198.281 44.2135 198.125 43.901 197.969 43.7969C197.552 43.6406 196.849 43.5104 195.859 43.4062C194.922 43.25 193.932 43.276 192.891 43.4844C191.901 43.6927 190.99 44.0833 190.156 44.6562C189.323 45.2292 188.854 46.1406 188.75 47.3906C188.646 48.224 188.62 49.2656 188.672 50.5156C188.724 51.7656 188.828 53.0677 188.984 54.4219ZM205.938 55.6719C205.885 55.776 205.26 55.9844 204.062 56.2969C202.865 56.6094 201.432 56.9479 199.766 57.3125C198.099 57.625 196.328 57.9635 194.453 58.3281C192.578 58.6406 190.964 58.901 189.609 59.1094C189.87 61.1927 190.182 63.0677 190.547 64.7344C190.911 66.349 191.224 67.3646 191.484 67.7812C191.745 68.1458 192.083 68.4844 192.5 68.7969C192.865 69.0573 193.307 69.3177 193.828 69.5781C194.401 69.7865 195.078 69.9427 195.859 70.0469C196.432 70.2031 196.979 69.9948 197.5 69.4219C197.917 68.901 198.281 67.9896 198.594 66.6875C198.958 65.3854 199.141 63.3281 199.141 60.5156C200.755 60.2552 202.005 60.099 202.891 60.0469C203.828 59.9948 204.505 59.9948 204.922 60.0469C205.443 60.099 205.755 60.1771 205.859 60.2812C205.911 60.4375 205.911 60.8281 205.859 61.4531C205.807 62.0781 205.677 62.8594 205.469 63.7969C205.312 64.6823 205.104 65.6719 204.844 66.7656C204.635 67.8073 204.375 68.8229 204.062 69.8125C203.75 70.75 203.411 71.6094 203.047 72.3906C202.682 73.1198 202.292 73.6406 201.875 73.9531C200.625 74.8906 199.062 75.3594 197.188 75.3594C195.312 75.3073 193.464 75.0469 191.641 74.5781C189.818 74.0573 188.177 73.4583 186.719 72.7812C185.26 72.0521 184.349 71.4531 183.984 70.9844C183.724 70.6719 183.49 69.8906 183.281 68.6406C183.073 67.3385 182.891 65.776 182.734 63.9531C182.63 62.1302 182.552 60.125 182.5 57.9375C182.448 55.75 182.474 53.6146 182.578 51.5312C182.734 49.4479 182.943 47.5208 183.203 45.75C183.516 43.9792 183.932 42.5469 184.453 41.4531C185.234 39.8906 186.51 38.6146 188.281 37.625C190.052 36.6354 191.927 35.9583 193.906 35.5938C195.885 35.2292 197.76 35.1771 199.531 35.4375C201.354 35.6979 202.708 36.2708 203.594 37.1562C204.115 37.6771 204.583 38.7188 205 40.2812C205.417 41.7917 205.677 43.6406 205.781 45.8281C205.781 46.0365 205.807 46.6354 205.859 47.625C205.911 48.6146 205.938 49.6823 205.938 50.8281C205.99 51.9219 206.016 52.9635 206.016 53.9531C206.016 54.9427 205.99 55.5156 205.938 55.6719ZM227.969 34.4219C228.385 34.6823 228.776 35.2031 229.141 35.9844C229.557 36.7135 229.922 37.5729 230.234 38.5625C230.599 39.5 230.885 40.5156 231.094 41.6094C231.354 42.7031 231.562 43.7188 231.719 44.6562C231.927 45.5938 232.057 46.401 232.109 47.0781C232.161 47.7031 232.161 48.0938 232.109 48.25C232.005 48.4583 231.693 48.6667 231.172 48.875C230.703 49.0833 230 49.3177 229.062 49.5781C228.125 49.8385 226.823 50.125 225.156 50.4375C225.052 47.5729 224.844 45.4115 224.531 43.9531C224.219 42.4427 223.88 41.375 223.516 40.75C223.099 40.0208 222.656 39.6562 222.188 39.6562C221.719 39.8646 221.302 40.125 220.938 40.4375C220.573 40.6979 220.26 40.9844 220 41.2969C219.688 41.6615 219.401 42.0521 219.141 42.4688C219.036 42.625 218.932 42.9896 218.828 43.5625C218.724 44.1354 218.62 44.9948 218.516 46.1406C218.516 46.5052 218.49 47.2604 218.438 48.4062C218.438 49.5521 218.411 50.8802 218.359 52.3906C218.359 53.901 218.333 55.4896 218.281 57.1562C218.281 58.8229 218.255 60.3854 218.203 61.8438C218.203 63.25 218.177 64.4479 218.125 65.4375C218.125 66.4271 218.099 67 218.047 67.1562C217.943 67.4167 217.682 67.7812 217.266 68.25C216.849 68.7188 216.38 69.1615 215.859 69.5781C215.339 69.9427 214.844 70.2552 214.375 70.5156C213.906 70.724 213.594 70.6979 213.438 70.4375C213.281 70.2812 213.125 69.6042 212.969 68.4062C212.812 67.2083 212.63 65.75 212.422 64.0312C212.266 62.2604 212.083 60.3333 211.875 58.25C211.667 56.1667 211.484 54.1615 211.328 52.2344C211.172 50.3073 211.042 48.5885 210.938 47.0781C210.833 45.5156 210.755 44.3958 210.703 43.7188C210.651 42.7292 210.599 41.6354 210.547 40.4375C210.495 39.2396 210.443 38.1198 210.391 37.0781C210.391 35.9844 210.391 35.0469 210.391 34.2656C210.443 33.4323 210.547 32.9375 210.703 32.7812C210.807 32.625 211.146 32.599 211.719 32.7031C212.344 32.7552 212.995 32.9115 213.672 33.1719C214.401 33.3802 215.078 33.6667 215.703 34.0312C216.328 34.3958 216.745 34.7344 216.953 35.0469C217.109 35.3073 217.266 35.6979 217.422 36.2188C218.411 35.6979 219.349 35.2292 220.234 34.8125C221.172 34.3438 222.057 34.0052 222.891 33.7969C223.776 33.5885 224.635 33.5365 225.469 33.6406C226.302 33.6927 227.135 33.9531 227.969 34.4219Z" fill="#BC5332"/>
<mask id="mask0_4_7" style="mask-type:alpha" maskUnits="userSpaceOnUse" x="0" y="7" width="80" height="81">
<path d="M0 87.6H80V7.6H0V87.6Z" fill="#009879"/>
</mask>
<g mask="url(#mask0_4_7)">
<rect x="-12" y="-2" width="92" height="91" fill="#009879"/>
</g>
</svg>
